<?xml version="1.0" encoding="utf-8"?>
<!-- Generator: Adobe Illustrator 25.2.0, SVG Export Plug-In . SVG Version: 6.00 Build 0)  -->
<svg version="1.1" id="Layer_1" xmlns="http://www.w3.org/2000/svg" xmlns:xlink="http://www.w3.org/1999/xlink" x="0px" y="0px"
	 viewBox="0 0 1703.4 962.2" style="enable-background:new 0 0 1703.4 962.2;" xml:space="preserve">
<g>
	<g>
		<path d="M77.2,391.8c0-43.3-11.4-78.4-31.7-75.5l-21.1,3v154.9l21.1-1C66.1,472.3,77.3,435.8,77.2,391.8 M101,389.5
			c0.2,68.8-20,123.8-53.4,124.5l-44.4,0.9V282.6l44.4-7.5C81.1,269.5,100.7,320.7,101,389.5"/>
	</g>
	<path d="M198.5,412.1l-18-102.4l-17.6,105.2L198.5,412.1z M244.4,509.8l-28.7,0.6l-9.7-55.1l-50.1,2.6l-8.9,53.9l-26.2,0.6
		l43.6-256.9l32.3-5.4L244.4,509.8z"/>
	<polygon points="416.9,506.1 380.5,506.9 306.1,316.7 306.1,508.4 277.8,509.1 277.8,236.6 310.4,231.1 384.8,419.2 384.8,218.6 
		416.9,213.2 	"/>
	<polygon points="664.4,500.8 623.9,501.6 623.9,273.5 564.2,406.1 507.9,288 507.9,504.1 472.2,504.9 472.2,203.9 512.3,197.2 
		564.2,304.5 618.7,179.4 664.4,171.7 	"/>
	<path d="M860.2,361.4l-33.7-139.2l-32.8,144.3L860.2,361.4z M947.3,494.7l-54.7,1.2l-18.3-75.5l-93.5,4.9l-16.5,73.4l-47.9,1
		l80.1-350.1l60.2-10.1L947.3,494.7z"/>
	<g>
		<path d="M1177.4,205.7c-0.7-25.4-11.4-49.3-50.4-43.7l-59.8,8.5v104.4l63.1-6.5C1149.3,266.4,1178.4,248.8,1177.4,205.7
			 M1267,487.9l-77.1,1.7l-72-151.9l-50.8,4v150.5l-55.5,1.2V113.5l119.9-20.1c18.1-3,33.4-3.6,49.2,0.7
			c33.9,9.6,60.9,47.9,62.7,97.3c2.1,59-23.2,107.2-62.7,128.5L1267,487.9z"/>
	</g>
	<polygon points="1688.2,0 1575.5,18.9 1423.2,227.1 1423.2,44.4 1350.1,56.7 1350.1,486.1 1423.2,484.5 1423.2,346.3 1470.8,285.5 
		1591.1,480.9 1699.1,478.6 1525.9,211.1 	"/>
	<polygon points="229.2,595.6 151.6,724.2 69.6,598.2 0,599.3 0,962.2 62.1,953.9 62.1,702.8 151.6,835.6 236.1,694 236.1,930.6 
		288.4,923.6 288.4,594.6 	"/>
	<g>
		<path d="M544.2,740.2c0-56.8-20.2-105.1-63.9-103.7c-46.5,1.6-67.8,50.7-67.8,113.6c0,61.3,21.2,107.9,67.8,102.5
			C524,847.5,544.2,798.5,544.2,740.2 M588.3,738.1c0,82.8-36.3,157.4-108.8,167.6c-78.5,11.4-116.8-58.6-116.8-151.5
			c0-92.2,35.7-167.4,116.6-170C553.6,582,588.3,655,588.3,738.1"/>
		<path d="M774.1,722.7c0-48.4-18.1-88.8-51.4-87.6l-36.8,1.3v185.8l36.8-4.2C756.6,814.1,774.3,771.9,774.1,722.7 M810.1,720
			c0.4,74.6-30.1,137.9-83.8,145.1l-79.4,10.6V588.8l79.4-1.3C780.1,586.6,809.7,645.3,810.1,720"/>
	</g>
	<polygon points="1056.7,820.8 1029.3,824.5 1029.3,653.7 985.6,754.3 940.1,658.2 940.1,836.4 908.9,840.6 908.9,584.5 
		943.9,583.9 985.6,674.4 1025.7,582.6 1056.7,582.1 	"/>
	<path d="M1168.3,720.6l-17.1-90l-17.4,93.1L1168.3,720.6z M1209.1,800.5l-25.1,3.3l-8.8-46.2l-48.4,5.3l-9.2,49.9l-28,3.8
		l45.8-235.6l31.2-0.5L1209.1,800.5z"/>
	<g>
		<path d="M1310.6,682.4c0-37.2-10.6-68.4-30.2-67.6l-21.4,0.8V757l21.4-2.4C1300.3,752.3,1310.7,720.2,1310.6,682.4 M1331.9,680.8
			c0.2,57.6-17.8,105.6-49.4,109.8l-46,6.2V579.2l46-0.8C1314.2,577.9,1331.7,623.3,1331.9,680.8"/>
		<path d="M1434.7,713.7c0,32.5-14.3,63.4-38.1,66.4c-18.6,2.5-30.9-9.3-43-31.4l14.5-28c6.5,13.2,14.9,25.8,27.2,24.4
			c6.9-0.8,19.7-5.8,20.2-28.3c0.4-21.9-12-21.6-24.9-24.4c-5.9-1.7-11.2-3.5-16.1-7.7c-10.3-8.9-17.3-23-17.4-50.1
			c-0.2-36.2,15.7-60.9,36.9-62.8c15.2-1.2,28.6,7.5,38.7,30.4l-14.2,25c-5-13.5-12.5-20.8-22.2-20.4c-8.5,0.3-18.9,8.5-18.5,25.4
			c0.3,11.4,3.1,18.5,16.8,21.9C1415.2,659,1434.7,665.2,1434.7,713.7"/>
		<path d="M1506.3,634.5c0-13.2-4-20.1-5.1-21.5c-3.7-5.3-8.1-4.7-11-4.6l-13.6,0.5v54.4l13.6-1c2.9-0.2,7.3-0.1,11-5.5
			C1502.3,654.8,1506.3,647.5,1506.3,634.5 M1522.9,631c0.1,35.5-11.1,61.7-27.5,63.2l-18.8,1.7v68.8l-17.2,2.3V575.5l35.4-0.6
			C1512.1,574.7,1522.9,601.4,1522.9,631"/>
	</g>
	<polygon points="1559.1,753.7 1543,755.8 1543,574.2 1559.1,573.9 	"/>
	<polygon points="1629.4,744.3 1583.7,750.4 1583.7,573.5 1599,573.3 1599,717 1629.4,713.6 	"/>
	<g>
		<path d="M1690.1,654c0-29.2-6.6-53.8-18.6-53.4l-13.1,0.5v110.6l13.1-1.5C1683.8,708.7,1690.2,683.7,1690.1,654 M1703.4,653
			c0.1,45.4-11.1,82.9-30.6,85.5l-28.1,3.8V572.5l28.1-0.5C1692.4,571.8,1703.2,607.6,1703.4,653"/>
	</g>
</g>
</svg>
